<svg width="128" height="128" viewBox="0 0 128 128" fill="none" xmlns="http://www.w3.org/2000/svg">
<path d="M121 84.5629C121 92.9031 119.108 98.8662 115.323 102.452C111.79 105.9 107.417 108.365 102.637 109.601C101.621 109.846 100.605 110.057 99.5536 110.232L97.1181 110.617L69.5043 110.53V100.017L93.2459 100.104C95.2431 100.118 97.2299 99.8164 99.1331 99.2108C101.045 98.5927 102.874 97.7455 104.582 96.6877C108.087 94.6669 109.839 90.2982 109.839 83.5817C109.839 77.9397 108.309 73.8514 105.248 71.3166C102.188 68.7818 97.562 67.4969 91.3711 67.4619L60.8136 67.4154V57.0016L90.7228 56.7387C96.3413 56.7387 100.237 55.4597 102.41 52.9015C104.558 50.3845 105.911 47.2869 106.299 44.0006V39.3399C106.308 38.1662 106.075 37.0033 105.616 35.9232C104.784 33.6594 103.31 31.6868 101.376 30.2462C99.2032 28.4941 95.8215 27.6005 91.1783 27.6005H69.5043V17H93.5788C101.323 17 106.872 18.6645 110.224 21.9936C113.397 24.971 115.637 28.8058 116.672 33.0322C116.812 33.698 116.97 34.3638 117.093 35.0471C117.246 35.7077 117.323 36.3839 117.32 37.0621V40.8467C117.572 45.6849 116.122 50.4585 113.22 54.3383C110.855 57.4425 107.587 59.7378 103.864 60.9089C104.304 61.0909 104.731 61.3016 105.143 61.5396L106.457 61.9076C110.361 63.1808 113.8 65.5833 116.339 68.811C119.458 72.3854 121.012 77.636 121 84.5629Z" fill="#B5F1F4"/>
<path d="M23.6155 27.6005V57.0016H60.8136V67.4093H23.6155V100.017H69.5043V110.53H11V17H69.5043V27.6005H23.6155Z" fill="#03B8E2"/>
</svg>
