<svg width="297" height="100" viewBox="0 0 297 100" fill="none" xmlns="http://www.w3.org/2000/svg">
<g clip-path="url(#clip0)">
<path d="M13.245 11.1295V41.9978H52.2995V52.9249H13.245V87.1597H61.4238V98.1972H0V0H61.4238V11.1295H13.245Z" fill="#03B8E2"/>
<path d="M136.516 20.2355C136.504 19.3477 136.674 18.4668 137.015 17.6473C137.357 16.8278 137.863 16.0871 138.503 15.4709C139.828 14.2186 141.582 13.5209 143.405 13.5209C145.228 13.5209 146.982 14.2186 148.308 15.4709C149.01 16.1152 149.563 16.905 149.928 17.7851C150.294 18.6652 150.462 19.6145 150.423 20.5666C150.475 21.496 150.339 22.4264 150.023 23.302C149.707 24.1776 149.217 24.9804 148.584 25.6623C147.972 26.2891 147.239 26.784 146.429 27.1162C145.619 27.4484 144.75 27.611 143.874 27.5938C142.031 27.5641 140.263 26.8569 138.907 25.6071C138.122 24.9563 137.498 24.133 137.083 23.2012C136.668 22.2695 136.474 21.2545 136.516 20.2355V20.2355ZM137.583 98.3812V34.713H149.227V98.2892L137.583 98.3812Z" fill="#B5F1F4"/>
<path d="M167.77 98.2892V59.4739C167.813 54.9975 169.086 50.6191 171.45 46.8175C173.879 42.7477 177.296 39.3564 181.383 36.9573C183.223 35.8423 185.203 34.9762 187.27 34.3819C188.709 33.9677 190.171 33.636 191.648 33.3885C192.865 33.1947 194.096 33.1024 195.327 33.1126C199.299 33.21 203.213 34.0915 206.843 35.7064C211.289 37.6661 215.081 40.8578 217.77 44.9043C220.974 49.4986 222.624 54.997 222.48 60.596V98.2892H210.817V60.7984C210.771 56.6067 209.194 52.5765 206.383 49.4665C205.06 47.8154 203.379 46.4869 201.467 45.5818C199.555 44.6766 197.461 44.2185 195.346 44.2421C193.297 44.1969 191.26 44.5671 189.358 45.3304C187.456 46.0938 185.729 47.2344 184.28 48.6835C182.83 50.1326 181.69 51.8603 180.926 53.7622C180.163 55.6641 179.793 57.7009 179.838 59.7498V98.3812L167.77 98.2892Z" fill="#B5F1F4"/>
<path d="M284.989 5.70273H296.652V67.8992C296.652 74.8896 293.917 81.9904 288.447 89.2016C282.978 96.4128 274.761 100.012 263.797 100C253.642 100 245.787 96.5048 240.232 89.5144C235.361 83.34 232.372 75.8932 231.623 68.0648C231.623 66.1148 231.623 64.2752 231.751 62.546C231.869 60.5882 232.115 58.6402 232.487 56.7145C232.994 54.2129 233.954 51.8251 235.32 49.6689C238.128 44.8382 242.091 40.7802 246.854 37.8587C248.997 36.5679 251.289 35.5424 253.679 34.805C255.923 34.0545 258.268 33.6512 260.633 33.6093C268.997 33.6093 275.57 35.0319 280.353 37.8771V50.1656C277.543 48.5526 274.623 47.1387 271.615 45.9345C270.116 45.3764 268.562 44.9756 266.979 44.7388H261.681C258.989 44.9746 256.372 45.7471 253.983 47.0109C251.595 48.2747 249.483 50.0041 247.774 52.0971C246.103 54.2175 244.888 56.6599 244.205 59.2715C243.911 60.7189 243.69 62.1802 243.543 63.6497C243.346 65.4825 243.253 67.3252 243.267 69.1685C243.258 70.7717 243.393 72.3725 243.672 73.9514C243.94 75.3921 244.43 76.7822 245.125 78.0721C246.498 80.6187 248.451 82.8057 250.828 84.4555C254.847 87.2325 259.577 88.8027 264.459 88.9809C267.4 89.1075 270.327 88.5013 272.976 87.217C275.625 85.9326 277.914 84.0102 279.636 81.6225C283.358 76.2287 285.236 69.7756 284.989 63.2266V5.70273Z" fill="#B5F1F4"/>
<path d="M115.489 70.9345C115.489 79.6909 113.503 85.9517 109.529 89.7167C105.82 93.3368 101.228 95.9242 96.2105 97.2222C95.1435 97.4798 94.0765 97.7005 92.9728 97.8845L90.4158 98.2892L61.4239 98.1972V87.1597L86.3503 87.2517C88.4471 87.2658 90.5331 86.9492 92.5313 86.3135C94.5382 85.6645 96.4592 84.775 98.2524 83.6645C101.932 81.5428 103.771 76.9561 103.771 69.9043C103.771 63.9809 102.165 59.6885 98.9515 57.0272C95.7383 54.366 90.8818 53.0169 84.3819 52.9801L52.2995 52.9313V41.9978L83.7013 41.7219C89.6002 41.7219 93.6902 40.379 95.9713 37.6932C98.2267 35.0505 99.6479 31.7984 100.055 28.348V23.4547C100.064 22.2225 99.8201 21.0015 99.3378 19.8675C98.4639 17.4907 96.9171 15.4197 94.886 13.9073C92.6049 12.0677 89.0545 11.1295 84.1796 11.1295H61.4239V0H86.6998C94.8308 0 100.656 1.74761 104.176 5.24283C107.507 8.36875 109.859 12.395 110.946 16.8322C111.093 17.5313 111.258 18.2303 111.387 18.9478C111.548 19.6413 111.629 20.3512 111.626 21.0633V25.0368C111.891 30.1164 110.368 35.1282 107.322 39.2016C104.838 42.4607 101.407 44.8706 97.4982 46.1001C97.9598 46.2912 98.4084 46.5124 98.8411 46.7623L100.221 47.1486C104.32 48.4854 107.93 51.0077 110.596 54.3966C113.871 58.1494 115.502 63.662 115.489 70.9345Z" fill="#B5F1F4"/>
</g>
<defs>
<clipPath id="clip0">
<rect width="296.652" height="100" fill="white"/>
</clipPath>
</defs>
</svg>
