<svg width="1280" height="640" viewBox="0 0 1280 640" fill="none" xmlns="http://www.w3.org/2000/svg">
<rect width="1280" height="640" fill="#466875"/>
<g clip-path="url(#clip0)">
<path d="M1064.83 184.678H1101V377.488C1101 399.158 1092.52 421.17 1075.56 443.525C1058.59 465.88 1033.11 477.038 999.108 477C967.616 477 943.255 466.165 926.026 444.495C910.92 425.354 901.65 402.269 899.326 378.001C899.326 371.956 899.326 366.253 899.725 360.893C900.091 354.823 900.854 348.785 902.007 342.815C903.579 335.06 906.557 327.658 910.793 320.974C919.502 305.999 931.793 293.419 946.564 284.362C953.209 280.36 960.316 277.182 967.73 274.896C974.687 272.569 981.959 271.319 989.295 271.189C1015.23 271.189 1035.62 275.599 1050.45 284.419V322.513C1041.74 317.513 1032.68 313.13 1023.35 309.397C1018.7 307.667 1013.89 306.424 1008.98 305.69H992.547C984.198 306.421 976.08 308.816 968.673 312.734C961.265 316.652 954.718 322.013 949.416 328.501C944.235 335.074 940.467 342.646 938.349 350.742C937.437 355.229 936.752 359.759 936.295 364.314C935.682 369.996 935.397 375.708 935.439 381.422C935.411 386.392 935.831 391.355 936.694 396.249C937.525 400.715 939.045 405.025 941.201 409.024C945.458 416.918 951.517 423.698 958.887 428.812C971.352 437.421 986.02 442.288 1001.16 442.841C1010.28 443.233 1019.36 441.354 1027.57 437.373C1035.79 433.391 1042.89 427.432 1048.23 420.03C1059.77 403.309 1065.6 383.304 1064.83 363.003V184.678Z" fill="#B5F1F4"/>
<path d="M701.302 471.696V351.369C701.435 337.492 705.382 323.919 712.713 312.134C720.247 299.518 730.843 289.005 743.52 281.568C749.225 278.111 755.364 275.426 761.776 273.584C766.24 272.3 770.773 271.272 775.354 270.504C779.128 269.904 782.944 269.617 786.765 269.649C799.083 269.951 811.22 272.684 822.478 277.69C836.267 283.765 848.026 293.659 856.367 306.203C866.302 320.446 871.419 337.491 870.972 354.848V471.696H834.801V355.475C834.659 342.481 829.769 329.987 821.052 320.346C816.95 315.228 811.735 311.11 805.805 308.304C799.874 305.498 793.383 304.077 786.822 304.15C780.467 304.01 774.151 305.158 768.252 307.524C762.354 309.891 756.996 313.427 752.502 317.919C748.008 322.411 744.47 327.767 742.103 333.663C739.736 339.559 738.588 345.873 738.728 352.224V471.982L701.302 471.696Z" fill="#B5F1F4"/>
<path d="M604.374 229.73C604.336 226.978 604.863 224.247 605.923 221.707C606.983 219.166 608.552 216.87 610.535 214.96C614.645 211.078 620.085 208.915 625.739 208.915C631.393 208.915 636.833 211.078 640.943 214.96C643.121 216.957 644.836 219.406 645.969 222.134C647.102 224.862 647.626 227.805 647.504 230.756C647.665 233.638 647.243 236.522 646.263 239.236C645.283 241.951 643.764 244.439 641.799 246.553C639.903 248.496 637.629 250.03 635.117 251.06C632.605 252.09 629.908 252.594 627.194 252.541C621.477 252.449 615.994 250.256 611.79 246.382C609.355 244.365 607.418 241.812 606.132 238.924C604.845 236.035 604.244 232.889 604.374 229.73ZM607.682 471.982V274.61H643.796V471.697L607.682 471.982Z" fill="#B5F1F4"/>
<path d="M539.164 386.897C539.164 414.042 533.003 433.45 520.68 445.122C509.176 456.344 494.937 464.365 479.375 468.389C476.066 469.187 472.757 469.872 469.334 470.442L461.404 471.696L371.492 471.411V437.195L448.796 437.48C455.299 437.524 461.768 436.543 467.965 434.572C474.189 432.56 480.147 429.803 485.708 426.36C497.118 419.783 502.823 405.564 502.823 383.703C502.823 365.341 497.841 352.034 487.876 343.784C477.911 335.534 462.85 331.352 442.692 331.238L343.195 331.087V297.193L440.581 296.338C458.875 296.338 471.559 292.175 478.634 283.849C485.628 275.656 490.036 265.575 491.299 254.879V239.71C491.327 235.89 490.57 232.105 489.074 228.589C486.364 221.221 481.567 214.801 475.268 210.113C468.193 204.41 457.183 201.501 442.064 201.501H371.492V167H449.88C475.097 167 493.163 172.418 504.078 183.253C514.41 192.943 521.704 205.424 525.073 219.18C525.529 221.347 526.043 223.514 526.442 225.738C526.943 227.888 527.191 230.089 527.184 232.296V244.614C528.004 260.361 523.281 275.897 513.834 288.525C506.133 298.628 495.49 306.099 483.369 309.91C484.801 310.503 486.192 311.188 487.534 311.963L491.812 313.161C504.525 317.305 515.722 325.124 523.989 335.629C534.144 347.263 539.203 364.352 539.164 386.897Z" fill="#B5F1F4"/>
<path d="M222.077 201.501V297.193H343.195V331.067H222.077V437.195H371.492V471.411H181V167H371.492V201.501H222.077Z" fill="#03B8E2"/>
</g>
<defs>
<clipPath id="clip0">
<rect width="920" height="310" fill="white" transform="translate(181 167)"/>
</clipPath>
</defs>
</svg>
